<svg width="20" height="20" viewBox="0 0 20 20" fill="none" xmlns="http://www.w3.org/2000/svg">
<g clip-path="url(#clip0_4_30)">
<path d="M11.875 14.9609C11.875 16.5312 11.8711 18.0977 11.8789 19.668C11.8789 19.8398 11.832 19.8867 11.6602 19.8828C10.3242 19.875 8.99219 19.875 7.65625 19.8828C7.47266 19.8828 7.41406 19.8398 7.41406 19.6484C7.42187 16.5352 7.41797 13.4258 7.41797 10.3125C7.41797 10 7.45312 10.0391 7.13281 10.0352C6.56641 10.0352 6 10.0313 5.43359 10.0391C5.29688 10.0391 5.25781 9.99609 5.25781 9.85938C5.26172 8.8711 5.26172 7.87891 5.25781 6.89063C5.25781 6.75391 5.29688 6.71094 5.43359 6.71485C6.02734 6.72266 6.61719 6.71094 7.21094 6.72266C7.37109 6.72656 7.42187 6.6836 7.42187 6.51563C7.41406 5.6836 7.42187 4.84766 7.41797 4.01563C7.41406 3.32422 7.51953 2.65625 7.86719 2.04688C8.24219 1.38282 8.80469 0.925785 9.5 0.62891C10.0859 0.378911 10.7031 0.261723 11.3359 0.226567C12.5898 0.156254 13.8477 0.214848 15.1016 0.191411C15.2422 0.187504 15.2773 0.238286 15.2773 0.371098C15.2734 1.39844 15.2734 2.42969 15.2773 3.45703C15.2773 3.61328 15.2188 3.63672 15.082 3.63672C14.3594 3.63282 13.6367 3.63282 12.9141 3.63282C12.3125 3.63282 11.8789 4.06641 11.8789 4.66016C11.8789 5.27344 11.8867 5.88282 11.875 6.4961C11.8711 6.67188 11.9297 6.71485 12.0977 6.71485C13.0859 6.70703 14.0781 6.71485 15.0664 6.70703C15.2305 6.70703 15.2852 6.75391 15.2656 6.91797C15.207 7.42188 15.1562 7.92578 15.1016 8.42969C15.0508 8.91406 14.9648 9.39453 14.8867 9.875C14.8633 10.0117 14.8203 10.043 14.6953 10.043C13.8477 10.0391 13.0039 10.0391 12.1563 10.043C11.8242 10.043 11.8711 10 11.8711 10.3359C11.875 11.875 11.875 13.418 11.875 14.9609Z" fill="#FF6600"/>
</g>
<defs>
<clipPath id="clip0_4_30">
<rect width="20" height="20" fill="white"/>
</clipPath>
</defs>
</svg>
