<svg width="22" height="22" viewBox="0 0 22 22" fill="none" xmlns="http://www.w3.org/2000/svg">
<g clip-path="url(#clip0_4_26)">
<path d="M20.6891 8.0543C20.679 7.29726 20.5373 6.54775 20.2703 5.83929C20.0387 5.2417 19.6851 4.69899 19.2319 4.24582C18.7787 3.79266 18.236 3.439 17.6385 3.20746C16.9391 2.94493 16.2003 2.80298 15.4534 2.78764C14.4919 2.74466 14.187 2.73267 11.7461 2.73267C9.30516 2.73267 8.99229 2.73267 8.03772 2.78764C7.29121 2.80309 6.55273 2.94504 5.85369 3.20746C5.25601 3.43884 4.71322 3.79244 4.26003 4.24563C3.80684 4.69881 3.45325 5.24161 3.22186 5.83929C2.95881 6.53811 2.81716 7.27676 2.80305 8.02331C2.76006 8.98589 2.74707 9.29075 2.74707 11.7317C2.74707 14.1726 2.74707 14.4844 2.80305 15.44C2.81804 16.1877 2.95898 16.9254 3.22186 17.626C3.45363 18.2235 3.8075 18.7661 4.26083 19.2191C4.71417 19.6721 5.25702 20.0256 5.85469 20.2569C6.55181 20.53 7.29042 20.6821 8.03872 20.7067C9.00129 20.7497 9.30616 20.7627 11.7471 20.7627C14.188 20.7627 14.5008 20.7627 15.4554 20.7067C16.2022 20.692 16.9411 20.5503 17.6405 20.2879C18.2379 20.056 18.7805 19.7023 19.2336 19.2492C19.6867 18.796 20.0405 18.2535 20.2723 17.656C20.5352 16.9563 20.6761 16.2187 20.6911 15.47C20.7341 14.5084 20.7471 14.2036 20.7471 11.7617C20.7451 9.32074 20.7451 9.01088 20.6891 8.0543V8.0543ZM11.7401 16.3476C9.18721 16.3476 7.11913 14.2795 7.11913 11.7267C7.11913 9.1738 9.18721 7.10572 11.7401 7.10572C12.9656 7.10572 14.141 7.59257 15.0076 8.45917C15.8742 9.32576 16.361 10.5011 16.361 11.7267C16.361 12.9522 15.8742 14.1276 15.0076 14.9942C14.141 15.8608 12.9656 16.3476 11.7401 16.3476V16.3476ZM16.5449 8.01232C16.4034 8.01245 16.2632 7.98467 16.1324 7.93057C16.0016 7.87646 15.8828 7.7971 15.7827 7.69701C15.6826 7.59693 15.6033 7.47809 15.5492 7.3473C15.4951 7.21651 15.4673 7.07634 15.4674 6.9348C15.4674 6.79336 15.4953 6.65331 15.5494 6.52264C15.6035 6.39197 15.6829 6.27324 15.7829 6.17323C15.8829 6.07322 16.0016 5.99389 16.1323 5.93976C16.263 5.88564 16.403 5.85778 16.5444 5.85778C16.6859 5.85778 16.8259 5.88564 16.9566 5.93976C17.0873 5.99389 17.206 6.07322 17.306 6.17323C17.406 6.27324 17.4854 6.39197 17.5395 6.52264C17.5936 6.65331 17.6215 6.79336 17.6215 6.9348C17.6215 7.53053 17.1397 8.01232 16.5449 8.01232Z" fill="#FF6600"/>
<path d="M11.7417 15.228C13.6747 15.228 15.2417 13.661 15.2417 11.728C15.2417 9.79503 13.6747 8.22803 11.7417 8.22803C9.8087 8.22803 8.2417 9.79503 8.2417 11.728C8.2417 13.661 9.8087 15.228 11.7417 15.228Z" fill="#FF6600"/>
</g>
<defs>
<clipPath id="clip0_4_26">
<rect width="22" height="22" fill="white"/>
</clipPath>
</defs>
</svg>
