<svg width="20" height="20" viewBox="0 0 20 20" fill="none" xmlns="http://www.w3.org/2000/svg">
<g clip-path="url(#clip0_4_17)">
<path d="M0.0390625 2.0703C0.136719 2.0703 0.105469 1.99218 0.113281 1.9414C0.230469 1.1328 0.648437 0.542958 1.42969 0.289052C2.05859 0.0859272 2.71484 0.109365 3.30078 0.445302C3.66797 0.660146 3.94922 0.992177 4.09766 1.40233C4.20703 1.70702 4.28906 2.02343 4.25391 2.34765C4.17188 3.16405 3.80469 3.84374 2.90625 4.16015C2.22656 4.39452 1.56641 4.30858 0.945313 3.93749C0.90625 3.79686 0.808594 3.72655 0.667969 3.70311C0.664063 3.64843 0.65625 3.59374 0.582031 3.59374C0.300781 3.28124 0.167969 2.90233 0.113281 2.49218C0.105469 2.4453 0.125 2.3789 0.0390625 2.3828C0.0390625 2.27733 0.0390625 2.17577 0.0390625 2.0703Z" fill="#FF6600"/>
<path d="M10.7891 8.44139C10.957 8.33983 11.0234 8.19139 11.1094 8.0703C11.5352 7.48436 12.0625 7.03124 12.7188 6.70702C13.6172 6.26561 14.5703 6.21873 15.5313 6.30858C16.2695 6.37498 16.9688 6.62499 17.6055 7.03124C18.3633 7.51561 18.9063 8.18749 19.2773 8.99217C19.5039 9.48046 19.6523 9.99999 19.7422 10.539C19.8242 11.043 19.8867 11.5391 19.8867 12.0508C19.8828 14.5898 19.8828 17.1289 19.8906 19.668C19.8906 19.8476 19.8398 19.8945 19.6641 19.8906C18.4648 19.8828 17.2695 19.8828 16.0703 19.8906C15.8945 19.8906 15.8555 19.8398 15.8555 19.6719C15.8594 17.2773 15.8711 14.8789 15.8516 12.4844C15.8477 11.9414 15.7734 11.4023 15.4922 10.9062C15.2422 10.4687 14.8945 10.1562 14.4375 9.97655C13.8242 9.73436 13.1914 9.68749 12.5508 9.86717C11.9023 10.0469 11.4531 10.4726 11.1328 11.0508C10.9531 11.375 10.8906 11.7148 10.8398 12.0781C10.7891 12.4687 10.7969 12.8516 10.7969 13.2383C10.7891 15.375 10.7891 17.5078 10.7969 19.6445C10.7969 19.8398 10.75 19.8945 10.5508 19.8906C9.36719 19.8789 8.17969 19.8828 6.99609 19.8906C6.83203 19.8906 6.77344 19.8398 6.77734 19.6875C6.78125 19.5781 6.78906 19.4687 6.78906 19.3594C6.78906 15.2383 6.79297 11.1172 6.78515 6.99608C6.78515 6.8242 6.82031 6.7617 7.00781 6.7617C8.19922 6.76952 9.39062 6.76952 10.582 6.7617C10.7422 6.7617 10.7969 6.80077 10.793 6.96874C10.7813 7.4453 10.7891 7.92577 10.7891 8.44139Z" fill="#FF6600"/>
<path d="M4.25781 6.87891C4.25781 7.01563 4.26172 7.15234 4.26172 7.28906C4.26172 11.4023 4.26172 15.5156 4.26172 19.6328C4.26172 19.8828 4.26172 19.8828 4.00781 19.8828C2.76562 19.8828 1.51953 19.8828 0.277344 19.8828C0.273437 19.7852 0.269531 19.6875 0.269531 19.5898C0.269531 16.5117 0.269531 13.4375 0.269531 10.3594C0.269531 9.26172 0.273437 8.16016 0.265625 7.0625C0.265625 6.92188 0.300781 6.87109 0.449219 6.87109C1.71875 6.87891 2.98828 6.875 4.25781 6.87891Z" fill="#FF6600"/>
<path d="M4.25781 6.87887C2.98828 6.87887 1.72266 6.87887 0.453125 6.87106C0.304688 6.87106 0.269531 6.91794 0.269531 7.06247C0.273438 8.16013 0.269531 9.25778 0.269531 10.3593C0.269531 13.4375 0.269531 16.5117 0.269531 19.5898C0.269531 19.6875 0.273438 19.7851 0.277344 19.8828C0.210938 19.8867 0.160156 19.8711 0.160156 19.7929C0.160156 19.7422 0.160156 19.6875 0.160156 19.6367C0.160156 15.4648 0.160156 11.2968 0.160156 7.12497C0.160156 6.82809 0.1875 6.80075 0.480469 6.80075C1.67188 6.80075 2.86328 6.80075 4.05078 6.80466C4.12109 6.80075 4.22656 6.74606 4.25781 6.87887Z" fill="#FF6600"/>
<path d="M0.667969 3.70703C0.808594 3.73047 0.90625 3.80078 0.945313 3.94141C0.824219 3.89453 0.734375 3.81641 0.667969 3.70703Z" fill="#FF6600"/>
<path d="M0.582031 3.59766C0.65625 3.59766 0.660156 3.65234 0.667969 3.70703C0.585938 3.71094 0.585938 3.65625 0.582031 3.59766Z" fill="#FF6600"/>
</g>
<defs>
<clipPath id="clip0_4_17">
<rect width="20" height="20" fill="white"/>
</clipPath>
</defs>
</svg>
