<svg width="20" height="20" viewBox="0 0 20 20" fill="none" xmlns="http://www.w3.org/2000/svg">
<g clip-path="url(#clip0_4_34)">
<path fill-rule="evenodd" clip-rule="evenodd" d="M20 3.63973C19.2652 3.97441 18.4739 4.20067 17.6439 4.30176C18.4914 3.78176 19.1419 2.95707 19.4483 1.97487C18.6547 2.45644 17.7778 2.80675 16.841 2.99457C16.0944 2.17722 15.0272 1.66675 13.8463 1.66675C11.5817 1.66675 9.74455 3.55066 9.74455 5.87411C9.74455 6.20396 9.77971 6.52411 9.85017 6.8324C6.44017 6.65646 3.41736 4.98317 1.3922 2.43472C1.03891 3.05832 0.836883 3.78176 0.836883 4.55223C0.836883 6.0113 1.56126 7.29927 2.66235 8.05412C1.99095 8.03365 1.35688 7.84224 0.802821 7.52927V7.58099C0.802821 9.62022 2.21735 11.3212 4.09564 11.7065C3.75173 11.8052 3.38892 11.8546 3.01439 11.8546C2.75032 11.8546 2.49204 11.8293 2.24188 11.7799C2.76423 13.4509 4.27861 14.6679 6.0747 14.7004C4.67064 15.8296 2.90048 16.5024 0.978758 16.5024C0.647664 16.5024 0.320164 16.4832 -0.000305176 16.4446C1.81579 17.6363 3.97345 18.3334 6.28955 18.3334C13.8378 18.3334 17.9641 11.923 17.9641 6.36271C17.9641 6.17974 17.9605 5.99677 17.9535 5.81739C18.7557 5.22395 19.4517 4.48364 20 3.63973Z" fill="#FF6600"/>
</g>
<defs>
<clipPath id="clip0_4_34">
<rect width="20" height="20" fill="white"/>
</clipPath>
</defs>
</svg>
